# xmcd
#
# Track frame offsets: 
#        182
#        10202
#        19412
#        32135
#        43595
#        55890
#        68017
#        79095
#        88480
#        100217
#        111972
#        120545
#        130860
#        139570
#        148655
#        161670
#        170910
#        181460
#        196097
#        206610
#
# Disc length: 2927 seconds
#
# Revision: 0
# Processed by: cddbd v1.5.2PL0 Copyright (c) Steve Scherf et al.
# Submitted via: ExactAudioCopy v0.95b4
#
DISCID=200b6d14
DTITLE=Golden Gate Quartet - Kings of Gospel
DYEAR=1999
DGENRE=Gospel
TTITLE0=When the saints go marchin' in
TTITLE1=Rock my soul
TTITLE2=Jezebel
TTITLE3=Moses smote the water
TTITLE4=Daniel saw the Stone
TTITLE5=Anyhow
TTITLE6=Didn't it rain?
TTITLE7=Our Father
TTITLE8=Noah
TTITLE9=Golden Gate gospel train
TTITLE10=Travelin' shoes
TTITLE11=Dipsy doodle
TTITLE12=Bye bye little children
TTITLE13=To the rock
TTITLE14=I heard Zion Moan
TTITLE15=Ol'man Moses
TTITLE16=If I had my way
TTITLE17=I'm a pilgrim
TTITLE18=My walking stick
TTITLE19=Stormy weather
EXTD=
EXTT0=
EXTT1=
EXTT2=
EXTT3=
EXTT4=
EXTT5=
EXTT6=
EXTT7=
EXTT8=
EXTT9=
EXTT10=
EXTT11=
EXTT12=
EXTT13=
EXTT14=
EXTT15=
EXTT16=
EXTT17=
EXTT18=
EXTT19=
PLAYORDER=
